<?xml version="1.0" encoding="UTF-8"?>
<svg xmlns="http://www.w3.org/2000/svg" xmlns:xlink="http://www.w3.org/1999/xlink" width="49.3pt" height="60.7pt" viewBox="0 0 49.3 60.7" version="1.1">
<defs>
<clipPath id="clip1">
  <path d="M 0 11 L 49.300781 11 L 49.300781 60.699219 L 0 60.699219 Z M 0 11 "/>
</clipPath>
</defs>
<g id="surface1">
<g clip-path="url(#clip1)" clip-rule="nonzero">
<path style=" stroke:none;fill-rule:evenodd;fill:rgb(78.90625%,54.881287%,10.594177%);fill-opacity:1;" d="M 24.699219 11.453125 C 38.257813 11.453125 49.3125 22.503906 49.3125 36.0625 C 49.3125 49.621094 38.257813 60.675781 24.699219 60.675781 C 11.140625 60.675781 0.0859375 49.621094 0.0859375 36.0625 C 0.0859375 22.503906 11.140625 11.453125 24.699219 11.453125 Z M 24.699219 11.453125 "/>
</g>
<path style=" stroke:none;fill-rule:evenodd;fill:rgb(100%,100%,100%);fill-opacity:1;" d="M 24.699219 12.273438 C 37.800781 12.273438 48.488281 22.964844 48.488281 36.0625 C 48.488281 49.164063 37.800781 59.851563 24.699219 59.851563 C 11.597656 59.851563 0.910156 49.164063 0.910156 36.0625 C 0.910156 22.964844 11.597656 12.273438 24.699219 12.273438 Z M 24.699219 12.273438 "/>
<path style=" stroke:none;fill-rule:evenodd;fill:rgb(87.5%,17.259216%,12.939453%);fill-opacity:1;" d="M 10.71875 18.628906 L 12.914063 18.628906 C 13.390625 18.628906 13.75 18.742188 13.988281 18.96875 C 14.226563 19.195313 14.34375 19.519531 14.34375 19.941406 C 14.34375 20.371094 14.214844 20.710938 13.957031 20.957031 C 13.695313 21.195313 13.300781 21.316406 12.765625 21.316406 L 12.042969 21.316406 L 12.042969 22.902344 L 10.71875 22.902344 Z M 12.042969 20.453125 L 12.367188 20.453125 C 12.625 20.453125 12.800781 20.40625 12.90625 20.316406 C 13.007813 20.230469 13.058594 20.117188 13.058594 19.976563 C 13.058594 19.84375 13.015625 19.730469 12.925781 19.636719 C 12.835938 19.542969 12.667969 19.496094 12.421875 19.496094 L 12.042969 19.496094 Z M 15.035156 18.628906 L 18.574219 18.628906 L 18.574219 19.539063 L 16.355469 19.539063 L 16.355469 20.21875 L 18.414063 20.21875 L 18.414063 21.09375 L 16.355469 21.09375 L 16.355469 21.933594 L 18.636719 21.933594 L 18.636719 22.902344 L 15.035156 22.902344 Z M 19.367188 22.902344 L 19.367188 18.628906 L 21.566406 18.628906 C 21.976563 18.628906 22.289063 18.664063 22.503906 18.734375 C 22.71875 18.804688 22.894531 18.933594 23.023438 19.121094 C 23.15625 19.3125 23.222656 19.542969 23.222656 19.8125 C 23.222656 20.050781 23.171875 20.257813 23.070313 20.429688 C 22.96875 20.601563 22.832031 20.738281 22.65625 20.847656 C 22.542969 20.914063 22.386719 20.972656 22.191406 21.015625 C 22.347656 21.066406 22.460938 21.121094 22.535156 21.171875 C 22.582031 21.210938 22.652344 21.28125 22.746094 21.398438 C 22.839844 21.511719 22.902344 21.601563 22.929688 21.664063 L 23.570313 22.902344 L 22.078125 22.902344 L 21.371094 21.59375 C 21.28125 21.425781 21.203125 21.316406 21.132813 21.265625 C 21.039063 21.203125 20.929688 21.167969 20.808594 21.167969 L 20.691406 21.167969 L 20.691406 22.902344 Z M 20.691406 20.359375 L 21.25 20.359375 C 21.308594 20.359375 21.425781 20.339844 21.597656 20.300781 C 21.6875 20.285156 21.757813 20.238281 21.8125 20.167969 C 21.867188 20.097656 21.898438 20.011719 21.898438 19.917969 C 21.898438 19.78125 21.851563 19.675781 21.765625 19.601563 C 21.675781 19.527344 21.511719 19.492188 21.273438 19.492188 L 20.691406 19.492188 Z M 23.761719 21.488281 L 25.019531 21.410156 C 25.046875 21.613281 25.101563 21.769531 25.1875 21.878906 C 25.320313 22.050781 25.515625 22.136719 25.769531 22.136719 C 25.957031 22.136719 26.101563 22.089844 26.203125 22.003906 C 26.304688 21.914063 26.355469 21.8125 26.355469 21.695313 C 26.355469 21.589844 26.308594 21.484375 26.210938 21.398438 C 26.113281 21.308594 25.890625 21.226563 25.535156 21.148438 C 24.957031 21.019531 24.542969 20.847656 24.296875 20.632813 C 24.046875 20.414063 23.921875 20.140625 23.921875 19.804688 C 23.921875 19.589844 23.988281 19.378906 24.113281 19.183594 C 24.242188 18.988281 24.433594 18.839844 24.6875 18.722656 C 24.945313 18.609375 25.292969 18.554688 25.738281 18.554688 C 26.285156 18.554688 26.703125 18.65625 26.988281 18.859375 C 27.277344 19.0625 27.445313 19.386719 27.5 19.832031 L 26.253906 19.902344 C 26.222656 19.714844 26.152344 19.570313 26.046875 19.480469 C 25.941406 19.394531 25.792969 19.351563 25.609375 19.351563 C 25.453125 19.351563 25.339844 19.382813 25.261719 19.453125 C 25.183594 19.511719 25.144531 19.59375 25.144531 19.6875 C 25.144531 19.753906 25.175781 19.816406 25.242188 19.871094 C 25.304688 19.925781 25.449219 19.976563 25.683594 20.027344 C 26.261719 20.152344 26.675781 20.277344 26.925781 20.40625 C 27.175781 20.53125 27.355469 20.691406 27.46875 20.878906 C 27.582031 21.066406 27.640625 21.277344 27.640625 21.511719 C 27.640625 21.785156 27.5625 22.039063 27.414063 22.269531 C 27.261719 22.503906 27.050781 22.675781 26.777344 22.796875 C 26.503906 22.914063 26.160156 22.976563 25.746094 22.976563 C 25.023438 22.976563 24.519531 22.839844 24.238281 22.554688 C 23.957031 22.273438 23.800781 21.921875 23.761719 21.488281 Z M 28.355469 18.628906 L 29.679688 18.628906 L 29.679688 22.902344 L 28.355469 22.902344 Z M 32.40625 18.628906 L 33.730469 18.628906 L 33.730469 20.957031 C 33.730469 21.4375 33.6875 21.808594 33.601563 22.066406 C 33.515625 22.320313 33.339844 22.535156 33.078125 22.714844 C 32.816406 22.890625 32.484375 22.976563 32.074219 22.976563 C 31.644531 22.976563 31.308594 22.921875 31.074219 22.804688 C 30.835938 22.6875 30.652344 22.515625 30.523438 22.292969 C 30.394531 22.066406 30.316406 21.789063 30.292969 21.464844 L 31.554688 21.285156 C 31.558594 21.476563 31.574219 21.617188 31.605469 21.710938 C 31.636719 21.796875 31.6875 21.871094 31.761719 21.929688 C 31.8125 21.964844 31.886719 21.984375 31.980469 21.984375 C 32.125 21.984375 32.234375 21.929688 32.304688 21.820313 C 32.375 21.714844 32.40625 21.523438 32.40625 21.265625 Z M 37.085938 22.195313 L 35.582031 22.195313 L 35.375 22.902344 L 34.027344 22.902344 L 35.632813 18.628906 L 37.074219 18.628906 L 38.679688 22.902344 L 37.296875 22.902344 Z M 36.8125 21.273438 L 36.339844 19.734375 L 35.867188 21.273438 Z M 36.8125 21.273438 "/>
<path style=" stroke:none;fill-rule:evenodd;fill:rgb(97.264099%,87.889099%,17.259216%);fill-opacity:1;" d="M 24.699219 56.464844 L 38.414063 52.132813 L 38.503906 26.535156 L 39.609375 25.914063 L 39.792969 24.671875 L 9.605469 24.671875 L 9.789063 25.914063 L 10.894531 26.535156 L 10.984375 52.132813 Z M 24.699219 56.464844 "/>
<path style=" stroke:none;fill-rule:evenodd;fill:rgb(87.5%,17.259216%,12.939453%);fill-opacity:1;" d="M 6.804688 51.710938 L 42.59375 51.710938 C 41.355469 53.125 39.957031 54.386719 38.425781 55.476563 L 10.972656 55.476563 C 9.441406 54.386719 8.042969 53.125 6.804688 51.710938 Z M 45.429688 24.417969 C 46.105469 25.613281 46.679688 26.871094 47.140625 28.179688 L 2.257813 28.179688 C 2.71875 26.871094 3.292969 25.613281 3.96875 24.417969 Z M 47.996094 31.238281 C 48.25 32.464844 48.40625 33.722656 48.464844 35.003906 L 0.933594 35.003906 C 0.992188 33.722656 1.148438 32.464844 1.402344 31.238281 Z M 48.402344 38.0625 C 48.296875 39.347656 48.085938 40.605469 47.777344 41.832031 L 1.617188 41.832031 C 1.3125 40.605469 1.101563 39.347656 0.996094 38.0625 Z M 46.785156 44.886719 C 46.257813 46.207031 45.613281 47.464844 44.867188 48.652344 L 4.53125 48.652344 C 3.785156 47.464844 3.140625 46.207031 2.609375 44.886719 Z M 46.785156 44.886719 "/>
<path style=" stroke:none;fill-rule:evenodd;fill:rgb(97.264099%,87.889099%,17.259216%);fill-opacity:1;" d="M 38.679688 52.972656 L 24.964844 57.304688 L 24.433594 57.304688 L 10.71875 52.972656 L 10.105469 52.777344 L 10.101563 52.132813 L 10.011719 27.050781 L 9.355469 26.683594 L 8.980469 26.472656 L 8.914063 26.042969 L 8.730469 24.800781 L 8.582031 23.789063 L 40.816406 23.789063 L 40.667969 24.800781 L 40.484375 26.042969 L 40.417969 26.472656 L 40.042969 26.683594 L 39.386719 27.050781 L 39.296875 52.132813 L 39.292969 52.777344 Z M 38.679688 52.972656 "/>
<path style=" stroke:none;fill-rule:evenodd;fill:rgb(100%,100%,100%);fill-opacity:1;" d="M 38.480469 34.003906 L 38.503906 26.535156 L 39.609375 25.914063 L 39.792969 24.671875 L 9.605469 24.671875 L 9.789063 25.914063 L 10.894531 26.535156 L 10.917969 33.992188 L 13.546875 33.972656 L 13.527344 33.144531 L 13.523438 32.917969 L 17.066406 32.917969 C 18.417969 31.371094 20.085938 30.914063 21.5625 30.507813 C 23.082031 30.09375 24.382813 29.734375 24.804688 28.222656 C 24.917969 27.941406 24.953125 27.789063 25.03125 27.523438 C 25.109375 27.789063 25.167969 27.964844 25.261719 28.222656 C 25.679688 29.734375 26.980469 30.09375 28.503906 30.507813 C 29.976563 30.914063 31.644531 31.371094 33 32.917969 L 36.542969 32.917969 L 36.535156 33.144531 L 36.515625 33.96875 Z M 38.480469 34.003906 "/>
<path style=" stroke:none;fill-rule:evenodd;fill:rgb(15.281677%,26.268005%,63.084412%);fill-opacity:1;" d="M 24.699219 56.464844 L 38.414063 52.132813 L 38.476563 34.445313 L 36.285156 34.40625 L 36.0625 34.40625 L 36.070313 34.183594 L 36.089844 33.359375 L 32.796875 33.359375 L 32.730469 33.28125 C 31.457031 31.777344 29.824219 31.332031 28.386719 30.933594 C 26.917969 30.53125 25.636719 30.179688 25.03125 28.886719 C 24.429688 30.179688 23.144531 30.53125 21.675781 30.933594 C 20.238281 31.332031 18.609375 31.777344 17.332031 33.28125 L 17.265625 33.359375 L 13.976563 33.359375 L 13.996094 34.183594 L 14 34.402344 L 13.777344 34.40625 L 10.921875 34.433594 L 10.984375 52.132813 Z M 24.699219 56.464844 "/>
<path style=" stroke:none;fill-rule:evenodd;fill:rgb(87.5%,17.259216%,12.939453%);fill-opacity:1;" d="M 14.542969 27.101563 C 14.5 27.105469 14.464844 27.113281 14.433594 27.117188 C 14.402344 27.128906 14.371094 27.132813 14.332031 27.140625 C 14.285156 27.152344 14.257813 27.175781 14.246094 27.207031 C 14.234375 27.234375 14.226563 27.269531 14.226563 27.308594 L 14.226563 28.582031 C 14.226563 28.695313 14.203125 28.804688 14.15625 28.902344 C 14.109375 29.003906 14.042969 29.085938 13.960938 29.148438 C 13.878906 29.214844 13.785156 29.261719 13.683594 29.296875 C 13.578125 29.332031 13.46875 29.34375 13.351563 29.34375 C 13.148438 29.34375 12.984375 29.296875 12.863281 29.203125 C 12.738281 29.101563 12.675781 28.964844 12.675781 28.796875 C 12.675781 28.695313 12.703125 28.613281 12.761719 28.546875 C 12.816406 28.480469 12.894531 28.445313 12.996094 28.445313 C 13.089844 28.445313 13.164063 28.472656 13.222656 28.53125 C 13.277344 28.589844 13.304688 28.652344 13.304688 28.734375 C 13.304688 28.804688 13.28125 28.867188 13.234375 28.925781 C 13.183594 28.984375 13.128906 29.039063 13.066406 29.089844 L 13.066406 29.113281 C 13.078125 29.132813 13.097656 29.152344 13.132813 29.167969 C 13.164063 29.183594 13.195313 29.191406 13.230469 29.191406 C 13.359375 29.191406 13.460938 29.144531 13.535156 29.050781 C 13.609375 28.960938 13.648438 28.816406 13.648438 28.628906 L 13.648438 27.328125 C 13.648438 27.285156 13.640625 27.253906 13.628906 27.226563 C 13.617188 27.203125 13.589844 27.179688 13.542969 27.160156 C 13.511719 27.144531 13.472656 27.132813 13.425781 27.121094 C 13.378906 27.113281 13.34375 27.105469 13.3125 27.101563 L 13.3125 26.976563 L 14.542969 26.976563 Z M 17.246094 29.28125 L 15.988281 29.28125 L 15.988281 29.15625 C 16.050781 29.152344 16.117188 29.140625 16.195313 29.128906 C 16.277344 29.105469 16.316406 29.089844 16.316406 29.0625 C 16.316406 29.054688 16.316406 29.042969 16.3125 29.03125 C 16.3125 29.019531 16.308594 29.007813 16.300781 28.988281 L 16.101563 28.511719 L 15.304688 28.511719 C 15.289063 28.554688 15.265625 28.605469 15.246094 28.667969 C 15.222656 28.726563 15.203125 28.777344 15.1875 28.828125 C 15.167969 28.886719 15.152344 28.929688 15.148438 28.960938 C 15.144531 28.984375 15.144531 29.003906 15.144531 29.015625 C 15.144531 29.050781 15.171875 29.082031 15.222656 29.101563 C 15.277344 29.128906 15.363281 29.144531 15.484375 29.15625 L 15.484375 29.28125 L 14.539063 29.28125 L 14.539063 29.15625 C 14.574219 29.152344 14.617188 29.148438 14.660156 29.140625 C 14.707031 29.128906 14.742188 29.117188 14.765625 29.101563 C 14.8125 29.078125 14.847656 29.042969 14.878906 29.003906 C 14.910156 28.964844 14.9375 28.921875 14.957031 28.871094 C 15.082031 28.566406 15.210938 28.257813 15.335938 27.957031 C 15.460938 27.648438 15.601563 27.3125 15.753906 26.941406 L 16.078125 26.941406 C 16.292969 27.464844 16.457031 27.878906 16.578125 28.183594 C 16.699219 28.484375 16.800781 28.738281 16.886719 28.9375 C 16.902344 28.96875 16.917969 29.003906 16.941406 29.023438 C 16.960938 29.050781 16.992188 29.082031 17.03125 29.101563 C 17.0625 29.117188 17.097656 29.132813 17.136719 29.140625 C 17.179688 29.148438 17.214844 29.152344 17.246094 29.15625 Z M 16.035156 28.347656 L 15.699219 27.511719 L 15.371094 28.347656 Z M 19.703125 27.101563 C 19.667969 27.105469 19.628906 27.113281 19.597656 27.121094 C 19.566406 27.132813 19.535156 27.144531 19.503906 27.164063 C 19.457031 27.1875 19.417969 27.222656 19.378906 27.265625 C 19.34375 27.304688 19.308594 27.351563 19.273438 27.398438 C 19.203125 27.503906 19.128906 27.613281 19.050781 27.734375 C 18.972656 27.855469 18.890625 27.988281 18.800781 28.132813 C 18.738281 28.226563 18.703125 28.296875 18.6875 28.347656 C 18.675781 28.394531 18.667969 28.480469 18.667969 28.601563 L 18.667969 28.929688 C 18.667969 28.96875 18.675781 29.003906 18.691406 29.03125 C 18.707031 29.0625 18.734375 29.089844 18.773438 29.105469 C 18.792969 29.109375 18.832031 29.121094 18.890625 29.132813 C 18.949219 29.144531 18.996094 29.152344 19.023438 29.15625 L 19.023438 29.28125 L 17.738281 29.28125 L 17.738281 29.15625 C 17.765625 29.152344 17.8125 29.148438 17.867188 29.144531 C 17.925781 29.136719 17.964844 29.128906 17.988281 29.121094 C 18.027344 29.101563 18.054688 29.082031 18.070313 29.050781 C 18.085938 29.023438 18.089844 28.988281 18.089844 28.945313 L 18.089844 28.539063 C 18.089844 28.503906 18.089844 28.472656 18.089844 28.445313 C 18.089844 28.417969 18.085938 28.394531 18.078125 28.378906 C 18.070313 28.355469 18.058594 28.335938 18.039063 28.296875 C 18.019531 28.265625 17.996094 28.222656 17.96875 28.171875 C 17.882813 28.027344 17.804688 27.886719 17.726563 27.757813 C 17.648438 27.628906 17.574219 27.503906 17.503906 27.386719 C 17.464844 27.332031 17.429688 27.28125 17.390625 27.246094 C 17.355469 27.210938 17.316406 27.179688 17.277344 27.15625 C 17.246094 27.140625 17.210938 27.128906 17.171875 27.117188 C 17.128906 27.109375 17.089844 27.105469 17.058594 27.101563 L 17.058594 26.976563 L 18.378906 26.976563 L 18.378906 27.101563 C 18.257813 27.105469 18.175781 27.113281 18.132813 27.128906 C 18.089844 27.140625 18.070313 27.160156 18.070313 27.183594 C 18.070313 27.195313 18.078125 27.21875 18.09375 27.253906 C 18.109375 27.289063 18.136719 27.347656 18.175781 27.421875 C 18.214844 27.492188 18.269531 27.589844 18.339844 27.714844 C 18.410156 27.839844 18.496094 27.980469 18.59375 28.144531 C 18.800781 27.820313 18.941406 27.589844 19.019531 27.464844 C 19.097656 27.335938 19.136719 27.253906 19.136719 27.222656 C 19.136719 27.1875 19.113281 27.160156 19.066406 27.140625 C 19.023438 27.121094 18.949219 27.105469 18.847656 27.101563 L 18.847656 26.976563 L 19.703125 26.976563 Z M 22.210938 29.28125 L 20.953125 29.28125 L 20.953125 29.15625 C 21.011719 29.152344 21.082031 29.140625 21.160156 29.128906 C 21.238281 29.105469 21.277344 29.089844 21.277344 29.0625 C 21.277344 29.054688 21.277344 29.042969 21.277344 29.03125 C 21.273438 29.019531 21.269531 29.007813 21.261719 28.988281 L 21.066406 28.511719 L 20.269531 28.511719 C 20.25 28.554688 20.230469 28.605469 20.207031 28.667969 C 20.1875 28.726563 20.167969 28.777344 20.152344 28.828125 C 20.128906 28.886719 20.117188 28.929688 20.113281 28.960938 C 20.109375 28.984375 20.109375 29.003906 20.109375 29.015625 C 20.109375 29.050781 20.132813 29.082031 20.1875 29.101563 C 20.238281 29.128906 20.328125 29.144531 20.449219 29.15625 L 20.449219 29.28125 L 19.503906 29.28125 L 19.503906 29.15625 C 19.539063 29.152344 19.578125 29.148438 19.625 29.140625 C 19.667969 29.128906 19.703125 29.117188 19.730469 29.101563 C 19.773438 29.078125 19.8125 29.042969 19.84375 29.003906 C 19.875 28.964844 19.902344 28.921875 19.921875 28.871094 C 20.046875 28.566406 20.171875 28.257813 20.300781 27.957031 C 20.425781 27.648438 20.566406 27.3125 20.71875 26.941406 L 21.042969 26.941406 C 21.257813 27.464844 21.421875 27.878906 21.542969 28.183594 C 21.664063 28.484375 21.765625 28.738281 21.851563 28.9375 C 21.863281 28.96875 21.882813 29.003906 21.902344 29.023438 C 21.925781 29.050781 21.957031 29.082031 21.996094 29.101563 C 22.027344 29.117188 22.0625 29.132813 22.101563 29.140625 C 22.140625 29.148438 22.179688 29.152344 22.210938 29.15625 Z M 21 28.347656 L 20.664063 27.511719 L 20.335938 28.347656 Z M 29.875 29.28125 L 28.988281 29.28125 C 28.835938 29.046875 28.710938 28.863281 28.609375 28.722656 C 28.507813 28.589844 28.382813 28.425781 28.230469 28.242188 L 28.140625 28.242188 L 28.140625 28.941406 C 28.140625 28.980469 28.148438 29.015625 28.164063 29.042969 C 28.175781 29.070313 28.207031 29.089844 28.246094 29.109375 C 28.265625 29.117188 28.300781 29.128906 28.34375 29.136719 C 28.386719 29.144531 28.425781 29.152344 28.457031 29.15625 L 28.457031 29.28125 L 27.226563 29.28125 L 27.226563 29.15625 C 27.257813 29.152344 27.296875 29.148438 27.351563 29.140625 C 27.402344 29.136719 27.4375 29.128906 27.460938 29.121094 C 27.5 29.101563 27.527344 29.085938 27.542969 29.054688 C 27.558594 29.027344 27.5625 28.992188 27.5625 28.957031 L 27.5625 27.328125 C 27.5625 27.285156 27.558594 27.253906 27.546875 27.226563 C 27.535156 27.203125 27.503906 27.179688 27.460938 27.160156 C 27.425781 27.144531 27.382813 27.132813 27.335938 27.121094 C 27.289063 27.113281 27.253906 27.105469 27.226563 27.101563 L 27.226563 26.976563 L 28.519531 26.976563 C 28.808594 26.976563 29.03125 27.019531 29.179688 27.109375 C 29.328125 27.203125 29.40625 27.339844 29.40625 27.519531 C 29.40625 27.683594 29.359375 27.8125 29.265625 27.910156 C 29.171875 28.007813 29.03125 28.089844 28.84375 28.140625 C 28.914063 28.238281 29 28.347656 29.101563 28.472656 C 29.199219 28.597656 29.300781 28.726563 29.40625 28.859375 C 29.441406 28.902344 29.484375 28.957031 29.542969 29.011719 C 29.601563 29.078125 29.652344 29.113281 29.699219 29.128906 C 29.722656 29.132813 29.753906 29.140625 29.792969 29.144531 C 29.832031 29.152344 29.859375 29.15625 29.875 29.15625 Z M 28.765625 27.566406 C 28.765625 27.414063 28.722656 27.300781 28.636719 27.230469 C 28.550781 27.15625 28.429688 27.121094 28.269531 27.121094 L 28.140625 27.121094 L 28.140625 28.089844 L 28.265625 28.089844 C 28.425781 28.089844 28.546875 28.046875 28.636719 27.964844 C 28.722656 27.878906 28.765625 27.746094 28.765625 27.566406 Z M 32.386719 29.28125 L 31.128906 29.28125 L 31.128906 29.15625 C 31.1875 29.152344 31.257813 29.140625 31.335938 29.128906 C 31.414063 29.105469 31.453125 29.089844 31.453125 29.0625 C 31.453125 29.054688 31.453125 29.042969 31.453125 29.03125 C 31.449219 29.019531 31.445313 29.007813 31.4375 28.988281 L 31.242188 28.511719 L 30.445313 28.511719 C 30.425781 28.554688 30.40625 28.605469 30.382813 28.667969 C 30.359375 28.726563 30.339844 28.777344 30.324219 28.828125 C 30.304688 28.886719 30.292969 28.929688 30.289063 28.960938 C 30.285156 28.984375 30.28125 29.003906 30.28125 29.015625 C 30.28125 29.050781 30.308594 29.082031 30.363281 29.101563 C 30.414063 29.128906 30.5 29.144531 30.625 29.15625 L 30.625 29.28125 L 29.679688 29.28125 L 29.679688 29.15625 C 29.714844 29.152344 29.753906 29.148438 29.800781 29.140625 C 29.84375 29.128906 29.878906 29.117188 29.90625 29.101563 C 29.949219 29.078125 29.988281 29.042969 30.019531 29.003906 C 30.050781 28.964844 30.074219 28.921875 30.097656 28.871094 C 30.222656 28.566406 30.347656 28.257813 30.472656 27.957031 C 30.601563 27.648438 30.738281 27.3125 30.894531 26.941406 L 31.21875 26.941406 C 31.429688 27.464844 31.597656 27.878906 31.71875 28.183594 C 31.839844 28.484375 31.941406 28.738281 32.023438 28.9375 C 32.039063 28.96875 32.054688 29.003906 32.078125 29.023438 C 32.101563 29.050781 32.132813 29.082031 32.171875 29.101563 C 32.203125 29.117188 32.238281 29.132813 32.277344 29.140625 C 32.316406 29.148438 32.351563 29.152344 32.386719 29.15625 Z M 31.175781 28.347656 L 30.839844 27.511719 L 30.507813 28.347656 Z M 34.84375 27.101563 C 34.804688 27.105469 34.769531 27.113281 34.734375 27.121094 C 34.703125 27.132813 34.671875 27.144531 34.644531 27.164063 C 34.597656 27.1875 34.554688 27.222656 34.519531 27.265625 C 34.484375 27.304688 34.445313 27.351563 34.410156 27.398438 C 34.34375 27.503906 34.265625 27.613281 34.191406 27.734375 C 34.113281 27.855469 34.027344 27.988281 33.9375 28.132813 C 33.878906 28.226563 33.839844 28.296875 33.828125 28.347656 C 33.8125 28.394531 33.808594 28.480469 33.808594 28.601563 L 33.808594 28.929688 C 33.808594 28.96875 33.816406 29.003906 33.828125 29.03125 C 33.84375 29.0625 33.871094 29.089844 33.914063 29.105469 C 33.929688 29.109375 33.96875 29.121094 34.03125 29.132813 C 34.089844 29.144531 34.132813 29.152344 34.160156 29.15625 L 34.160156 29.28125 L 32.875 29.28125 L 32.875 29.15625 C 32.90625 29.152344 32.949219 29.148438 33.007813 29.144531 C 33.0625 29.136719 33.101563 29.128906 33.125 29.121094 C 33.164063 29.101563 33.195313 29.082031 33.207031 29.050781 C 33.222656 29.023438 33.230469 28.988281 33.230469 28.945313 L 33.230469 28.539063 C 33.230469 28.503906 33.230469 28.472656 33.226563 28.445313 C 33.226563 28.417969 33.222656 28.394531 33.214844 28.378906 C 33.210938 28.355469 33.195313 28.335938 33.179688 28.296875 C 33.160156 28.265625 33.136719 28.222656 33.105469 28.171875 C 33.023438 28.027344 32.941406 27.886719 32.863281 27.757813 C 32.785156 27.628906 32.710938 27.503906 32.640625 27.386719 C 32.605469 27.332031 32.566406 27.28125 32.53125 27.246094 C 32.492188 27.210938 32.453125 27.179688 32.414063 27.15625 C 32.386719 27.140625 32.351563 27.128906 32.308594 27.117188 C 32.265625 27.109375 32.230469 27.105469 32.195313 27.101563 L 32.195313 26.976563 L 33.519531 26.976563 L 33.519531 27.101563 C 33.394531 27.105469 33.316406 27.113281 33.273438 27.128906 C 33.230469 27.140625 33.207031 27.160156 33.207031 27.183594 C 33.207031 27.195313 33.214844 27.21875 33.230469 27.253906 C 33.246094 27.289063 33.277344 27.347656 33.316406 27.421875 C 33.351563 27.492188 33.40625 27.589844 33.476563 27.714844 C 33.550781 27.839844 33.632813 27.980469 33.734375 28.144531 C 33.941406 27.820313 34.082031 27.589844 34.160156 27.464844 C 34.234375 27.335938 34.273438 27.253906 34.273438 27.222656 C 34.273438 27.1875 34.25 27.160156 34.207031 27.140625 C 34.160156 27.121094 34.089844 27.105469 33.988281 27.101563 L 33.988281 26.976563 L 34.84375 26.976563 Z M 37.351563 29.28125 L 36.09375 29.28125 L 36.09375 29.15625 C 36.152344 29.152344 36.21875 29.140625 36.296875 29.128906 C 36.378906 29.105469 36.417969 29.089844 36.417969 29.0625 C 36.417969 29.054688 36.417969 29.042969 36.414063 29.03125 C 36.414063 29.019531 36.410156 29.007813 36.402344 28.988281 L 36.203125 28.511719 L 35.40625 28.511719 C 35.390625 28.554688 35.367188 28.605469 35.347656 28.667969 C 35.324219 28.726563 35.304688 28.777344 35.289063 28.828125 C 35.269531 28.886719 35.257813 28.929688 35.253906 28.960938 C 35.25 28.984375 35.246094 29.003906 35.246094 29.015625 C 35.246094 29.050781 35.273438 29.082031 35.324219 29.101563 C 35.378906 29.128906 35.464844 29.144531 35.589844 29.15625 L 35.589844 29.28125 L 34.640625 29.28125 L 34.640625 29.15625 C 34.675781 29.152344 34.71875 29.148438 34.761719 29.140625 C 34.808594 29.128906 34.84375 29.117188 34.871094 29.101563 C 34.914063 29.078125 34.953125 29.042969 34.984375 29.003906 C 35.011719 28.964844 35.039063 28.921875 35.058594 28.871094 C 35.183594 28.566406 35.3125 28.257813 35.4375 27.957031 C 35.566406 27.648438 35.703125 27.3125 35.855469 26.941406 L 36.183594 26.941406 C 36.394531 27.464844 36.5625 27.878906 36.679688 28.183594 C 36.800781 28.484375 36.902344 28.738281 36.988281 28.9375 C 37.003906 28.96875 37.019531 29.003906 37.042969 29.023438 C 37.0625 29.050781 37.09375 29.082031 37.136719 29.101563 C 37.164063 29.117188 37.199219 29.132813 37.242188 29.140625 C 37.28125 29.148438 37.316406 29.152344 37.351563 29.15625 Z M 36.136719 28.347656 L 35.804688 27.511719 L 35.472656 28.347656 Z M 36.136719 28.347656 "/>
<path style=" stroke:none;fill-rule:evenodd;fill:rgb(98.046875%,77.734375%,5.488586%);fill-opacity:1;" d="M 21.84375 54.488281 C 21.832031 54.394531 21.894531 54.308594 21.988281 54.296875 C 22.082031 54.289063 22.167969 54.347656 22.179688 54.441406 C 22.199219 54.5625 22.292969 54.589844 22.417969 54.570313 C 22.570313 54.550781 22.769531 54.476563 22.953125 54.414063 C 23.1875 54.324219 23.40625 54.242188 23.574219 54.25 C 23.835938 54.253906 24.058594 54.367188 24.269531 54.476563 C 24.4375 54.558594 24.59375 54.640625 24.734375 54.640625 C 24.945313 54.640625 25.152344 54.542969 25.347656 54.457031 C 25.714844 54.277344 26.058594 54.117188 26.472656 54.417969 C 26.527344 54.460938 26.582031 54.488281 26.628906 54.511719 C 26.773438 54.574219 26.898438 54.570313 27 54.527344 C 27.109375 54.484375 27.199219 54.402344 27.261719 54.320313 C 27.289063 54.28125 27.308594 54.25 27.324219 54.210938 C 27.359375 54.125 27.460938 54.085938 27.546875 54.125 C 27.632813 54.167969 27.671875 54.261719 27.636719 54.347656 C 27.613281 54.40625 27.578125 54.460938 27.535156 54.519531 C 27.441406 54.648438 27.300781 54.777344 27.125 54.84375 C 26.945313 54.917969 26.730469 54.929688 26.492188 54.824219 C 26.417969 54.792969 26.34375 54.75 26.269531 54.695313 C 26.019531 54.511719 25.765625 54.632813 25.492188 54.761719 C 25.261719 54.867188 25.019531 54.980469 24.734375 54.980469 C 24.515625 54.980469 24.320313 54.882813 24.117188 54.78125 C 23.9375 54.691406 23.753906 54.59375 23.566406 54.589844 C 23.460938 54.585938 23.273438 54.65625 23.074219 54.730469 C 22.871094 54.804688 22.65625 54.882813 22.464844 54.914063 C 22.144531 54.957031 21.894531 54.875 21.84375 54.488281 Z M 21.574219 53.640625 C 21.515625 53.566406 21.527344 53.457031 21.601563 53.398438 C 21.675781 53.339844 21.785156 53.351563 21.84375 53.425781 C 22.015625 53.640625 22.257813 53.519531 22.476563 53.40625 C 22.679688 53.304688 22.871094 53.207031 23.0625 53.28125 C 23.132813 53.304688 23.195313 53.332031 23.257813 53.359375 C 23.574219 53.488281 23.777344 53.570313 24.128906 53.332031 C 24.539063 53.058594 24.773438 53.179688 25.015625 53.304688 C 25.1875 53.394531 25.371094 53.492188 25.722656 53.242188 C 26.023438 53.03125 26.246094 53.136719 26.5 53.265625 C 26.726563 53.375 26.992188 53.503906 27.402344 53.257813 C 27.480469 53.210938 27.585938 53.234375 27.632813 53.316406 C 27.683594 53.398438 27.65625 53.503906 27.578125 53.550781 C 27.007813 53.894531 26.652344 53.71875 26.351563 53.570313 C 26.191406 53.492188 26.054688 53.425781 25.921875 53.519531 C 25.398438 53.890625 25.121094 53.75 24.855469 53.609375 C 24.707031 53.53125 24.5625 53.457031 24.320313 53.617188 C 23.816406 53.957031 23.550781 53.847656 23.128906 53.675781 C 23.070313 53.652344 23.007813 53.625 22.941406 53.597656 C 22.890625 53.582031 22.765625 53.644531 22.628906 53.710938 C 22.296875 53.882813 21.921875 54.074219 21.574219 53.640625 Z M 21.574219 53.640625 "/>
<path style=" stroke:none;fill-rule:evenodd;fill:rgb(100%,100%,100%);fill-opacity:1;" d="M 24.363281 49.277344 L 28.703125 49.277344 L 28.703125 48.675781 L 26.65625 48.675781 L 26.65625 48.164063 L 22.054688 48.164063 L 22.054688 48.675781 L 20.007813 48.675781 L 20.007813 49.277344 Z M 24.363281 49.277344 "/>
<path style=" stroke:none;fill-rule:evenodd;fill:rgb(100%,100%,100%);fill-opacity:1;" d="M 24.363281 44.371094 L 24.976563 44.371094 L 24.589844 33.96875 C 24.578125 33.796875 24.640625 33.597656 24.976563 33.597656 L 24.976563 33.4375 L 23.734375 33.4375 L 23.734375 33.597656 C 24.066406 33.597656 24.128906 33.796875 24.121094 33.96875 L 23.734375 44.371094 Z M 24.363281 44.371094 "/>
<path style=" stroke:none;fill-rule:evenodd;fill:rgb(100%,100%,100%);fill-opacity:1;" d="M 24.363281 44.972656 L 27.886719 44.972656 L 27.886719 44.640625 L 20.824219 44.640625 L 20.824219 44.972656 Z M 24.363281 44.972656 "/>
<path style=" stroke:none;fill-rule:evenodd;fill:rgb(100%,100%,100%);fill-opacity:1;" d="M 24.804688 47.914063 L 25.109375 47.914063 C 25.316406 46.539063 25.953125 45.628906 27.257813 45.476563 L 27.257813 45.234375 L 21.453125 45.234375 L 21.453125 45.476563 C 22.757813 45.628906 23.394531 46.539063 23.601563 47.914063 L 23.898438 47.914063 C 23.898438 47.878906 23.898438 47.839844 23.898438 47.804688 C 23.898438 47.089844 24.105469 46.511719 24.355469 46.511719 C 24.605469 46.511719 24.8125 47.089844 24.8125 47.804688 Z M 24.804688 47.914063 "/>
<path style=" stroke:none;fill-rule:evenodd;fill:rgb(100%,100%,100%);fill-opacity:1;" d="M 27.238281 47.914063 L 28.703125 47.914063 L 28.703125 47.375 L 27.238281 47.375 Z M 27.238281 47.914063 "/>
<path style=" stroke:none;fill-rule:evenodd;fill:rgb(87.5%,17.259216%,12.939453%);fill-opacity:1;" d="M 24.355469 31.398438 L 24.695313 32.203125 C 24.886719 32.609375 24.542969 33.113281 24.355469 33.113281 C 24.167969 33.113281 23.824219 32.609375 24.015625 32.203125 Z M 24.355469 31.398438 "/>
<path style=" stroke:none;fill-rule:evenodd;fill:rgb(100%,100%,100%);fill-opacity:1;" d="M 20.007813 47.914063 L 21.472656 47.914063 L 21.472656 47.375 L 20.007813 47.375 Z M 20.007813 47.914063 "/>
<path style=" stroke:none;fill-rule:evenodd;fill:rgb(100%,100%,100%);fill-opacity:1;" d="M 27.671875 32.960938 C 27.523438 32.960938 27.386719 33.023438 27.296875 33.136719 C 27.257813 33.128906 27.21875 33.121094 27.179688 33.121094 C 26.902344 33.121094 26.6875 33.339844 26.6875 33.59375 C 26.6875 33.707031 26.714844 33.792969 26.777344 33.867188 C 26.714844 33.953125 26.6875 34.050781 26.6875 34.160156 C 26.6875 34.441406 26.921875 34.664063 27.210938 34.664063 C 27.496094 34.664063 27.722656 34.441406 27.722656 34.160156 C 27.722656 34.101563 27.710938 34.050781 27.703125 34.003906 C 27.949219 33.984375 28.15625 33.753906 28.15625 33.476563 C 28.15625 33.1875 27.9375 32.960938 27.671875 32.960938 Z M 29.070313 35.207031 C 28.933594 35.261719 28.863281 35.363281 28.84375 35.46875 C 28.804688 35.476563 28.765625 35.496094 28.726563 35.511719 C 28.488281 35.609375 28.410156 35.839844 28.546875 36.007813 C 28.597656 36.078125 28.675781 36.128906 28.765625 36.160156 C 28.765625 36.234375 28.785156 36.308594 28.84375 36.382813 C 28.992188 36.566406 29.316406 36.632813 29.574219 36.515625 C 29.820313 36.40625 29.898438 36.167969 29.75 35.976563 C 29.722656 35.941406 29.691406 35.910156 29.652344 35.882813 C 29.859375 35.777344 29.917969 35.542969 29.769531 35.363281 C 29.621094 35.171875 29.296875 35.105469 29.070313 35.207031 Z M 33.070313 33.761719 C 32.992188 33.695313 32.871094 33.652344 32.753906 33.652344 C 32.746094 33.628906 32.726563 33.609375 32.703125 33.589844 C 32.566406 33.457031 32.3125 33.429688 32.132813 33.535156 C 32.066406 33.570313 32.023438 33.628906 31.996094 33.675781 C 31.917969 33.6875 31.828125 33.714844 31.757813 33.753906 C 31.5625 33.859375 31.53125 34.058594 31.671875 34.203125 C 31.820313 34.339844 32.09375 34.367188 32.28125 34.257813 C 32.320313 34.234375 32.351563 34.210938 32.371094 34.183594 C 32.507813 34.300781 32.765625 34.308594 32.960938 34.203125 C 33.148438 34.09375 33.207031 33.894531 33.070313 33.761719 Z M 36.585938 37.417969 C 36.535156 37.3125 36.429688 37.238281 36.300781 37.214844 C 36.289063 37.179688 36.289063 37.152344 36.269531 37.121094 C 36.191406 36.929688 35.925781 36.839844 35.6875 36.914063 C 35.601563 36.945313 35.523438 37.003906 35.472656 37.0625 C 35.382813 37.046875 35.285156 37.054688 35.1875 37.089844 C 34.929688 37.179688 34.792969 37.410156 34.882813 37.617188 C 34.980469 37.816406 35.253906 37.917969 35.511719 37.832031 C 35.5625 37.808594 35.601563 37.785156 35.640625 37.761719 C 35.738281 37.933594 36.003906 38.007813 36.261719 37.925781 C 36.527344 37.839844 36.664063 37.609375 36.585938 37.417969 Z M 32.332031 38.257813 C 32.191406 38.257813 32.074219 38.328125 32.003906 38.414063 C 31.964844 38.40625 31.925781 38.40625 31.886719 38.40625 C 31.621094 38.414063 31.445313 38.589844 31.484375 38.796875 C 31.503906 38.871094 31.550781 38.945313 31.621094 39.011719 C 31.582031 39.082031 31.5625 39.152344 31.582031 39.246094 C 31.632813 39.46875 31.898438 39.644531 32.183594 39.644531 C 32.457031 39.636719 32.644531 39.445313 32.597656 39.21875 C 32.585938 39.179688 32.566406 39.136719 32.546875 39.097656 C 32.792969 39.082031 32.949219 38.886719 32.902344 38.664063 C 32.851563 38.441406 32.597656 38.253906 32.332031 38.257813 Z M 32.863281 42.3125 C 32.710938 42.304688 32.578125 42.367188 32.503906 42.484375 C 32.457031 42.464844 32.417969 42.457031 32.371094 42.457031 C 32.09375 42.433594 31.894531 42.632813 31.914063 42.890625 C 31.925781 42.996094 31.972656 43.089844 32.039063 43.175781 C 31.992188 43.253906 31.960938 43.347656 31.972656 43.464844 C 32 43.746094 32.257813 43.992188 32.550781 44.011719 C 32.84375 44.039063 33.0625 43.820313 33.035156 43.535156 C 33.027344 43.480469 33.015625 43.429688 32.996094 43.378906 C 33.253906 43.382813 33.433594 43.164063 33.40625 42.882813 C 33.375 42.589844 33.140625 42.339844 32.863281 42.3125 Z M 36.941406 42.835938 C 36.960938 42.710938 36.921875 42.589844 36.832031 42.503906 C 36.839844 42.464844 36.851563 42.441406 36.859375 42.40625 C 36.898438 42.191406 36.742188 41.976563 36.507813 41.933594 C 36.417969 41.917969 36.328125 41.925781 36.25 41.964844 C 36.191406 41.902344 36.101563 41.859375 36.003906 41.84375 C 35.75 41.800781 35.511719 41.941406 35.460938 42.175781 C 35.421875 42.40625 35.589844 42.632813 35.847656 42.671875 C 35.894531 42.679688 35.945313 42.679688 35.984375 42.679688 C 35.964844 42.890625 36.140625 43.089844 36.386719 43.128906 C 36.65625 43.179688 36.902344 43.039063 36.941406 42.835938 Z M 36.078125 48.503906 C 36.160156 48.382813 36.148438 48.230469 36.078125 48.089844 C 36.109375 48.066406 36.140625 48.03125 36.160156 48.003906 C 36.296875 47.757813 36.199219 47.46875 35.941406 47.339844 C 35.84375 47.292969 35.734375 47.277344 35.636719 47.285156 C 35.585938 47.195313 35.507813 47.121094 35.398438 47.070313 C 35.125 46.929688 34.78125 47.019531 34.640625 47.269531 C 34.496094 47.519531 34.601563 47.835938 34.878906 47.976563 C 34.925781 48.003906 34.984375 48.015625 35.046875 48.023438 C 34.925781 48.257813 35.054688 48.539063 35.320313 48.679688 C 35.605469 48.820313 35.941406 48.746094 36.078125 48.503906 Z M 31.355469 48.042969 C 31.265625 47.925781 31.128906 47.867188 30.992188 47.867188 C 30.980469 47.828125 30.953125 47.792969 30.933594 47.757813 C 30.765625 47.550781 30.480469 47.511719 30.300781 47.675781 C 30.234375 47.742188 30.183594 47.828125 30.164063 47.917969 C 30.074219 47.925781 29.988281 47.960938 29.90625 48.023438 C 29.710938 48.210938 29.703125 48.53125 29.878906 48.753906 C 30.054688 48.980469 30.351563 49.011719 30.546875 48.839844 C 30.585938 48.804688 30.617188 48.761719 30.644531 48.722656 C 30.8125 48.90625 31.089844 48.921875 31.285156 48.746094 C 31.484375 48.5625 31.523438 48.253906 31.355469 48.042969 Z M 31.355469 48.042969 "/>
<path style=" stroke:none;fill-rule:evenodd;fill:rgb(0%,65.429688%,34.910583%);fill-opacity:1;" d="M 27.761719 34.589844 C 27.761719 34.589844 28.753906 34.628906 29.109375 34.589844 C 29.847656 34.523438 31.050781 35.304688 31.582031 35.726563 C 32.054688 36.109375 31.246094 35.660156 30.882813 35.589844 C 30.507813 35.503906 29.96875 35.332031 29.96875 35.332031 C 30.113281 35.554688 30.152344 35.742188 29.949219 35.878906 C 30.085938 36.050781 30.074219 36.210938 29.9375 36.359375 C 29.9375 36.359375 31.160156 36.019531 31.867188 36.140625 C 32.566406 36.265625 33.445313 37.277344 33.265625 37.339844 C 33.089844 37.402344 32.429688 36.441406 31.652344 36.460938 C 30.882813 36.464844 30.054688 36.773438 30.054688 36.773438 C 30.054688 36.773438 30.746094 37.339844 31.472656 37.464844 C 32.210938 37.59375 33.039063 37.417969 33.316406 37.636719 C 33.601563 37.859375 34.25 38.855469 34.347656 39.21875 C 34.457031 39.582031 34.390625 39.582031 34.390625 39.582031 C 34.390625 39.582031 33.628906 39.105469 33.445313 38.886719 C 33.246094 38.664063 33.058594 38.382813 33.058594 38.382813 C 33.15625 38.691406 33.089844 38.921875 32.871094 39.070313 C 32.96875 39.253906 32.890625 39.464844 32.703125 39.675781 C 32.703125 39.675781 33.648438 39.378906 34.023438 39.816406 C 34.386719 40.257813 34.496094 40.9375 34.457031 41.195313 C 34.429688 41.445313 34.40625 41.601563 34.40625 41.601563 C 34.40625 41.601563 33.6875 40.503906 33.285156 40.257813 C 32.882813 40.023438 31.464844 40.042969 31.464844 40.042969 C 31.464844 40.042969 31.9375 40.78125 32.4375 41.0625 C 32.949219 41.351563 34.023438 41.339844 34.25 41.785156 C 34.476563 42.242188 34.457031 43.171875 34.40625 43.691406 C 34.347656 44.214844 34.191406 44.832031 34.191406 44.832031 C 34.191406 44.832031 33.789063 43.253906 33.71875 43.113281 C 33.777344 43.144531 33.582031 43.492188 33.136719 43.550781 C 33.285156 43.941406 32.851563 44.128906 32.722656 44.078125 C 32.8125 44.109375 33.542969 44.265625 33.867188 44.988281 C 34.179688 45.71875 33.472656 46.871094 33.472656 46.871094 C 33.472656 46.871094 33.070313 46.554688 33.089844 46.128906 C 33.109375 45.703125 32.949219 44.96875 32.753906 44.597656 C 32.566406 44.214844 30.953125 43.851563 30.953125 43.851563 C 30.953125 43.851563 30.8125 44.796875 31.246094 45.402344 C 31.691406 46.003906 32.84375 46.28125 33.019531 46.695313 C 33.195313 47.101563 33.175781 47.578125 32.566406 48.183594 C 31.945313 48.78125 31.246094 49.726563 30.972656 49.933594 C 30.683594 50.140625 30.566406 50.265625 30.566406 50.265625 C 30.8125 49.878906 31.058594 49.484375 31.304688 49.09375 C 31.285156 49.167969 31 49.261719 30.746094 49.042969 C 30.449219 49.21875 30.035156 49.09375 30.003906 49.035156 C 30.210938 49.359375 30.578125 49.792969 29.867188 50.414063 C 29.007813 50.90625 27.628906 51.167969 26.195313 51.25 C 26.285156 51.109375 26.457031 50.839844 26.519531 50.722656 C 26.605469 50.570313 26.765625 50.246094 26.40625 49.972656 C 26.046875 49.710938 25.496094 50.265625 25.496094 50.265625 L 24.699219 51.1875 L 24.699219 51.480469 C 25.210938 52.082031 25.734375 52.6875 25.734375 52.6875 L 25.90625 52.574219 L 24.953125 51.480469 C 25.273438 51.476563 25.589844 51.488281 25.910156 51.476563 L 27.230469 52.554688 L 27.460938 52.34375 L 26.308594 51.457031 C 27.222656 51.40625 28.066406 51.300781 28.707031 51.144531 C 29.472656 51.003906 30.144531 50.960938 30.683594 51.085938 C 31.226563 51.210938 32.320313 51.175781 32.792969 51.039063 C 33.265625 50.894531 34.191406 49.984375 34.191406 49.984375 C 34.191406 49.984375 33.441406 49.667969 32.722656 49.792969 C 32.003906 49.917969 31 50.4375 31 50.4375 C 31 50.4375 31.917969 49.476563 32.820313 49.285156 C 33.738281 49.09375 35.265625 48.886719 35.265625 48.886719 C 34.839844 48.78125 34.722656 48.554688 34.820313 48.238281 C 34.507813 48.148438 34.328125 47.882813 34.28125 47.457031 C 34.28125 47.457031 33.894531 48.289063 33.316406 48.570313 C 32.742188 48.863281 32.65625 48.863281 32.65625 48.863281 C 32.65625 48.863281 33.246094 48.039063 33.601563 47.578125 C 33.945313 47.121094 34.929688 46.488281 35.777344 46.191406 C 36.613281 45.890625 37.058594 45.179688 37.15625 44.796875 C 37.265625 44.421875 37.265625 43.835938 37.265625 43.835938 C 37.265625 43.835938 36.121094 43.976563 35.667969 44.421875 C 35.214844 44.863281 34.722656 45.492188 34.703125 45.683594 C 34.683594 45.878906 34.425781 46.28125 34.425781 46.28125 C 34.425781 46.28125 34.507813 45.167969 34.703125 44.753906 C 34.890625 44.347656 35.746094 43.476563 36.191406 43.339844 C 36.050781 43.367188 35.90625 43.285156 35.855469 43.027344 C 35.472656 43.039063 35.292969 42.730469 35.371094 42.640625 C 35.371094 42.640625 35.125 43.777344 34.96875 43.898438 C 34.8125 44.023438 34.664063 44.253906 34.664063 44.164063 C 34.664063 44.089844 34.664063 42.589844 34.8125 42.148438 C 34.949219 41.703125 35.1875 41.1875 35.679688 40.914063 C 36.171875 40.648438 36.476563 39.785156 36.476563 39.433594 C 36.476563 39.089844 36.40625 38.886719 36.40625 38.886719 C 36.40625 38.886719 35.539063 39.21875 35.371094 39.785156 C 35.195313 40.355469 35.402344 40.589844 35.175781 40.902344 C 34.949219 41.21875 34.820313 41.367188 34.820313 41.367188 C 34.820313 41.367188 34.476563 40.429688 34.839844 39.867188 C 35.214844 39.292969 36.160156 38.507813 36.316406 38.253906 C 36.140625 38.355469 35.863281 38.316406 35.621094 38.042969 C 35.214844 38.164063 34.988281 38.085938 34.8125 37.910156 C 34.8125 37.910156 35.195313 38.597656 34.980469 38.929688 C 34.773438 39.261719 34.566406 39.46875 34.566406 39.46875 C 34.566406 39.46875 34.527344 38.820313 34.339844 38.429688 C 34.140625 38.03125 34.101563 37.703125 34.339844 37.261719 C 34.566406 36.8125 34.613281 35.953125 34.527344 35.519531 C 34.4375 35.09375 34.101563 34.796875 34.101563 34.796875 C 34.101563 34.796875 33.667969 35.1875 33.667969 35.867188 C 33.667969 36.546875 34.074219 36.671875 33.984375 37.054688 C 33.894531 37.433594 33.847656 37.542969 33.847656 37.542969 C 33.847656 37.542969 33.382813 36.5625 33.085938 36.28125 C 32.792969 35.992188 32.753906 35.660156 32.882813 35.1875 C 33 34.714844 33.066406 34.328125 33.066406 34.328125 C 32.871094 34.523438 32.664063 34.539063 32.4375 34.414063 C 32.261719 34.621094 31.996094 34.566406 31.71875 34.515625 C 31.71875 34.515625 32.476563 35.160156 32.496094 35.484375 C 32.507813 35.816406 32.546875 36.140625 32.546875 36.140625 C 32.546875 36.140625 31.335938 35.1875 30.84375 34.921875 C 30.351563 34.65625 30.339844 34.832031 30.25 34.328125 C 30.164063 33.816406 30.023438 33.214844 29.492188 32.839844 C 28.972656 32.460938 28.683594 32.40625 28.683594 32.40625 C 28.683594 32.40625 28.703125 33.226563 29 33.628906 C 29.304688 34.015625 29.847656 34.503906 29.847656 34.503906 C 29.847656 34.496094 29.789063 34.65625 29.335938 34.367188 C 28.882813 34.085938 28.429688 33.4375 28.429688 33.4375 C 28.390625 33.667969 28.351563 33.890625 28.09375 34.015625 C 28.136719 34.300781 28.015625 34.492188 27.761719 34.589844 Z M 25.886719 51.257813 C 25.871094 51.261719 25.855469 51.261719 25.835938 51.261719 C 25.632813 51.261719 25.246094 51.265625 24.875 51.269531 C 25.242188 50.847656 25.578125 50.464844 25.667969 50.351563 C 25.90625 50.097656 26.199219 50.046875 26.359375 50.296875 C 26.484375 50.484375 26.082031 51.019531 25.886719 51.257813 Z M 25.886719 51.257813 "/>
<path style=" stroke:none;fill-rule:evenodd;fill:rgb(97.264099%,87.889099%,17.259216%);fill-opacity:1;" d="M 21.9375 52.34375 L 22.164063 52.554688 L 23.488281 51.472656 C 23.660156 51.480469 23.828125 51.484375 24 51.484375 C 24.066406 51.484375 24.234375 51.484375 24.441406 51.484375 L 23.492188 52.574219 L 23.664063 52.6875 C 23.664063 52.6875 24.1875 52.082031 24.699219 51.480469 L 24.699219 51.1875 L 23.902344 50.265625 C 23.902344 50.265625 23.351563 49.710938 22.992188 49.972656 C 22.628906 50.246094 22.792969 50.570313 22.878906 50.722656 C 22.941406 50.84375 23.121094 51.125 23.207031 51.253906 C 21.46875 51.171875 19.972656 50.890625 19.515625 50.515625 C 19.515625 50.515625 19.367188 50.023438 19.367188 49.851563 C 19.367188 49.683594 19.074219 49.160156 19.074219 49.160156 C 19.074219 49.160156 19.203125 49.765625 19.210938 49.910156 C 19.230469 50.058594 19.113281 50.398438 18.996094 50.398438 C 18.875 50.398438 18.53125 50.097656 18.53125 50.097656 C 18.53125 50.097656 18.433594 49.46875 18.414063 49.269531 C 18.394531 49.0625 18.265625 48.6875 18.277344 48.796875 C 18.296875 48.894531 18.207031 49.566406 18.207031 49.566406 C 18.148438 49.617188 18.089844 49.660156 18.019531 49.714844 C 17.882813 49.59375 17.742188 49.46875 17.597656 49.351563 C 17.597656 49.351563 17.566406 48.957031 17.597656 48.710938 C 17.636719 48.464844 17.496094 48.175781 17.496094 48.175781 C 17.496094 48.175781 17.449219 48.335938 17.429688 48.539063 C 17.410156 48.738281 17.332031 49.019531 17.332031 49.019531 C 17.332031 49.019531 16.355469 48.035156 16.21875 47.800781 C 16.089844 47.582031 15.765625 47.800781 15.855469 47.953125 C 15.953125 48.101563 16.238281 48.496094 16.328125 48.648438 C 16.414063 48.796875 14.730469 48.589844 14.109375 48.429688 C 13.5 48.273438 12.800781 47.636719 12.800781 47.636719 C 12.898438 48.203125 13.589844 48.621094 14.238281 48.796875 C 14.722656 48.921875 16.582031 48.945313 16.582031 48.945313 C 16.691406 49.070313 16.859375 49.261719 16.90625 49.332031 C 16.964844 49.386719 15.824219 49.652344 15.203125 49.59375 C 14.582031 49.535156 13.570313 49.21875 13.570313 49.21875 C 14.542969 50.007813 15.835938 49.859375 17.273438 49.703125 C 17.273438 49.703125 17.597656 49.960938 17.6875 50.078125 C 17.429688 50.210938 16.289063 50.316406 15.882813 50.328125 C 16.574219 50.671875 17.875 50.335938 17.875 50.335938 C 17.875 50.335938 18.347656 50.539063 18.40625 50.714844 C 18.464844 50.886719 17.980469 50.855469 17.597656 50.863281 C 18.257813 51.136719 18.511719 50.917969 18.976563 50.9375 C 18.976563 50.9375 19.3125 50.875 19.84375 51.019531 C 20.710938 51.257813 21.875 51.402344 23.089844 51.457031 Z M 21.753906 32.996094 C 21.515625 33.261719 21.359375 33.601563 21.035156 33.792969 C 20.699219 33.976563 20.265625 33.976563 19.890625 34.078125 C 20.128906 33.808594 20.285156 33.46875 20.609375 33.277344 C 20.945313 33.089844 21.378906 33.089844 21.753906 32.996094 Z M 19.683594 32.65625 C 19.675781 32.960938 19.773438 33.261719 19.65625 33.535156 C 19.546875 33.820313 19.230469 34.003906 19.023438 34.234375 C 19.023438 33.941406 18.925781 33.636719 19.042969 33.355469 C 19.164063 33.082031 19.476563 32.890625 19.683594 32.65625 Z M 18.375 33.15625 C 18.425781 33.445313 18.582031 33.742188 18.523438 34.035156 C 18.464844 34.316406 18.199219 34.550781 18.03125 34.804688 C 17.980469 34.515625 17.824219 34.226563 17.882813 33.933594 C 17.941406 33.644531 18.207031 33.421875 18.375 33.15625 Z M 17.125 33.859375 C 17.210938 34.148438 17.398438 34.425781 17.371094 34.722656 C 17.351563 35.011719 17.105469 35.261719 16.976563 35.535156 C 16.898438 35.246094 16.699219 34.972656 16.730469 34.679688 C 16.75 34.382813 16.996094 34.132813 17.125 33.859375 Z M 16.058594 34.558594 C 16.167969 34.839844 16.375 35.105469 16.375 35.394531 C 16.375 35.683594 16.160156 35.957031 16.050781 36.234375 C 15.941406 35.953125 15.726563 35.683594 15.726563 35.394531 C 15.734375 35.097656 15.953125 34.839844 16.058594 34.558594 Z M 15.164063 35.402344 C 15.28125 35.675781 15.519531 35.933594 15.539063 36.234375 C 15.546875 36.523438 15.351563 36.796875 15.261719 37.082031 C 15.132813 36.804688 14.90625 36.546875 14.886719 36.257813 C 14.867188 35.96875 15.066406 35.695313 15.164063 35.402344 Z M 14.355469 36.335938 C 14.503906 36.597656 14.761719 36.839844 14.800781 37.128906 C 14.839844 37.421875 14.660156 37.707031 14.59375 37.992188 C 14.445313 37.726563 14.199219 37.488281 14.148438 37.195313 C 14.109375 36.90625 14.289063 36.613281 14.355469 36.335938 Z M 13.597656 37.371094 C 13.804688 37.601563 14.101563 37.800781 14.207031 38.085938 C 14.308594 38.367188 14.199219 38.671875 14.199219 38.964844 C 13.992188 38.722656 13.695313 38.53125 13.589844 38.253906 C 13.480469 37.96875 13.597656 37.660156 13.597656 37.371094 Z M 12.957031 38.367188 C 13.195313 38.585938 13.519531 38.746094 13.667969 39.011719 C 13.816406 39.277344 13.746094 39.59375 13.785156 39.882813 C 13.550781 39.667969 13.222656 39.503906 13.074219 39.238281 C 12.929688 38.972656 12.996094 38.65625 12.957031 38.367188 Z M 12.496094 39.402344 C 12.75 39.601563 13.097656 39.734375 13.273438 39.992188 C 13.449219 40.242188 13.421875 40.566406 13.5 40.855469 C 13.234375 40.65625 12.890625 40.523438 12.710938 40.265625 C 12.535156 40.007813 12.5625 39.695313 12.496094 39.402344 Z M 12.210938 40.585938 C 12.496094 40.753906 12.847656 40.863281 13.054688 41.097656 C 13.261719 41.339844 13.273438 41.660156 13.371094 41.925781 C 13.097656 41.761719 12.730469 41.652344 12.535156 41.417969 C 12.328125 41.179688 12.316406 40.855469 12.210938 40.585938 Z M 21.910156 34.453125 C 21.585938 34.566406 21.289063 34.765625 20.945313 34.789063 C 20.601563 34.8125 20.265625 34.65625 19.929688 34.589844 C 20.246094 34.472656 20.542969 34.265625 20.886719 34.242188 C 21.242188 34.226563 21.566406 34.382813 21.910156 34.453125 Z M 12.269531 41.816406 C 12.542969 41.992188 12.910156 42.101563 13.105469 42.339844 C 13.3125 42.585938 13.324219 42.894531 13.429688 43.179688 C 13.144531 43.003906 12.789063 42.894531 12.582031 42.65625 C 12.375 42.421875 12.367188 42.101563 12.269531 41.816406 Z M 12.277344 42.9375 C 12.574219 43.089844 12.949219 43.164063 13.175781 43.386719 C 13.402344 43.609375 13.441406 43.925781 13.578125 44.203125 C 13.28125 44.050781 12.910156 43.96875 12.683594 43.742188 C 12.457031 43.527344 12.40625 43.207031 12.277344 42.9375 Z M 12.554688 44.128906 C 12.871094 44.257813 13.242188 44.316406 13.488281 44.515625 C 13.734375 44.722656 13.816406 45.039063 13.972656 45.304688 C 13.667969 45.171875 13.28125 45.113281 13.035156 44.914063 C 12.789063 44.710938 12.710938 44.390625 12.554688 44.128906 Z M 12.730469 45.292969 C 13.066406 45.378906 13.441406 45.378906 13.734375 45.542969 C 14.019531 45.714844 14.160156 46.007813 14.367188 46.242188 C 14.03125 46.15625 13.648438 46.167969 13.363281 46.003906 C 13.074219 45.839844 12.9375 45.527344 12.730469 45.292969 Z M 13.300781 46.398438 C 13.648438 46.441406 14.03125 46.398438 14.335938 46.523438 C 14.652344 46.65625 14.839844 46.9375 15.085938 47.144531 C 14.742188 47.105469 14.355469 47.144531 14.050781 47.011719 C 13.734375 46.878906 13.558594 46.597656 13.300781 46.398438 Z M 13.875 47.46875 C 14.21875 47.484375 14.59375 47.410156 14.917969 47.519531 C 15.242188 47.617188 15.460938 47.882813 15.726563 48.066406 C 15.378906 48.058594 15.007813 48.132813 14.679688 48.023438 C 14.355469 47.917969 14.140625 47.652344 13.875 47.46875 Z M 20.976563 35.113281 C 20.648438 35.207031 20.324219 35.378906 19.980469 35.378906 C 19.636719 35.371094 19.320313 35.1875 18.984375 35.097656 C 19.320313 35.003906 19.644531 34.835938 19.988281 34.835938 C 20.335938 34.839844 20.648438 35.023438 20.976563 35.113281 Z M 19.929688 35.535156 C 19.605469 35.652344 19.308594 35.851563 18.964844 35.882813 C 18.621094 35.910156 18.285156 35.753906 17.941406 35.683594 C 18.265625 35.570313 18.5625 35.363281 18.90625 35.339844 C 19.25 35.3125 19.585938 35.46875 19.929688 35.535156 Z M 18.976563 36.003906 C 18.671875 36.140625 18.40625 36.378906 18.058594 36.433594 C 17.726563 36.480469 17.371094 36.359375 17.027344 36.328125 C 17.332031 36.183594 17.597656 35.957031 17.941406 35.894531 C 18.277344 35.839844 18.632813 35.964844 18.976563 36.003906 Z M 18.277344 36.671875 C 17.972656 36.8125 17.703125 37.046875 17.359375 37.105469 C 17.023438 37.164063 16.671875 37.03125 16.324219 36.996094 C 16.632813 36.855469 16.898438 36.628906 17.242188 36.566406 C 17.578125 36.507813 17.929688 36.640625 18.277344 36.671875 Z M 17.664063 37.363281 C 17.378906 37.519531 17.132813 37.769531 16.800781 37.851563 C 16.464844 37.925781 16.101563 37.832031 15.753906 37.808594 C 16.039063 37.644531 16.285156 37.402344 16.621094 37.320313 C 16.957031 37.246094 17.320313 37.34375 17.664063 37.363281 Z M 16.945313 38.101563 C 16.691406 38.308594 16.492188 38.585938 16.179688 38.710938 C 15.863281 38.835938 15.488281 38.773438 15.132813 38.804688 C 15.390625 38.605469 15.585938 38.335938 15.902344 38.210938 C 16.21875 38.085938 16.601563 38.140625 16.945313 38.101563 Z M 16.523438 38.878906 C 16.285156 39.097656 16.109375 39.386719 15.804688 39.527344 C 15.5 39.667969 15.125 39.636719 14.78125 39.695313 C 15.015625 39.476563 15.183594 39.1875 15.488281 39.046875 C 15.792969 38.90625 16.179688 38.9375 16.523438 38.878906 Z M 16.140625 39.734375 C 15.921875 39.964844 15.773438 40.257813 15.488281 40.414063 C 15.195313 40.585938 14.808594 40.578125 14.472656 40.648438 C 14.691406 40.425781 14.839844 40.128906 15.132813 39.964844 C 15.421875 39.800781 15.804688 39.808594 16.140625 39.734375 Z M 15.894531 40.632813 C 15.695313 40.878906 15.578125 41.179688 15.292969 41.363281 C 15.015625 41.542969 14.640625 41.558594 14.308594 41.652344 C 14.503906 41.410156 14.621094 41.105469 14.898438 40.929688 C 15.171875 40.746094 15.558594 40.730469 15.894531 40.632813 Z M 15.84375 41.511719 C 15.667969 41.757813 15.578125 42.066406 15.3125 42.265625 C 15.054688 42.460938 14.671875 42.503906 14.355469 42.613281 C 14.535156 42.367188 14.621094 42.050781 14.878906 41.859375 C 15.144531 41.667969 15.519531 41.628906 15.84375 41.511719 Z M 15.824219 42.300781 C 15.675781 42.566406 15.625 42.886719 15.398438 43.105469 C 15.164063 43.320313 14.789063 43.394531 14.484375 43.542969 C 14.632813 43.277344 14.679688 42.957031 14.917969 42.738281 C 15.144531 42.523438 15.519531 42.453125 15.824219 42.300781 Z M 15.894531 43.128906 C 15.804688 43.410156 15.8125 43.734375 15.617188 43.984375 C 15.429688 44.222656 15.074219 44.347656 14.808594 44.53125 C 14.898438 44.253906 14.886719 43.933594 15.074219 43.683594 C 15.261719 43.4375 15.617188 43.3125 15.894531 43.128906 Z M 16.050781 44.050781 C 16.011719 44.347656 16.089844 44.664063 15.941406 44.929688 C 15.804688 45.207031 15.480469 45.371094 15.253906 45.589844 C 15.28125 45.292969 15.214844 44.980469 15.351563 44.714844 C 15.488281 44.441406 15.8125 44.273438 16.050781 44.050781 Z M 16.40625 45.054688 C 16.367188 45.351563 16.433594 45.667969 16.296875 45.933594 C 16.160156 46.203125 15.832031 46.378906 15.605469 46.589844 C 15.636719 46.300781 15.566406 45.984375 15.707031 45.71875 C 15.84375 45.445313 16.167969 45.277344 16.40625 45.054688 Z M 16.917969 45.828125 C 16.90625 46.117188 17.003906 46.421875 16.886719 46.710938 C 16.777344 46.980469 16.472656 47.171875 16.257813 47.402344 C 16.265625 47.113281 16.167969 46.796875 16.277344 46.523438 C 16.394531 46.253906 16.699219 46.058594 16.917969 45.828125 Z M 15.410156 46.914063 C 15.539063 46.855469 15.746094 46.964844 15.863281 47.152344 C 15.980469 47.34375 15.980469 47.550781 15.851563 47.609375 C 15.726563 47.667969 15.519531 47.558594 15.390625 47.371094 C 15.273438 47.171875 15.273438 46.972656 15.410156 46.914063 Z M 14.789063 45.976563 C 14.917969 45.917969 15.113281 46.035156 15.234375 46.234375 C 15.339844 46.429688 15.320313 46.640625 15.191406 46.6875 C 15.054688 46.738281 14.859375 46.621094 14.75 46.421875 C 14.632813 46.234375 14.652344 46.023438 14.789063 45.976563 Z M 14.355469 44.921875 C 14.496094 44.886719 14.679688 45.019531 14.761719 45.226563 C 14.839844 45.4375 14.800781 45.636719 14.660156 45.675781 C 14.523438 45.71875 14.335938 45.582031 14.257813 45.367188 C 14.167969 45.160156 14.21875 44.964844 14.355469 44.921875 Z M 13.992188 43.808594 C 14.140625 43.785156 14.296875 43.941406 14.347656 44.15625 C 14.386719 44.378906 14.308594 44.566406 14.167969 44.589844 C 14.019531 44.613281 13.863281 44.460938 13.816406 44.242188 C 13.773438 44.023438 13.855469 43.828125 13.992188 43.808594 Z M 13.773438 42.664063 C 13.914063 42.640625 14.070313 42.796875 14.121094 43.003906 C 14.167969 43.21875 14.089844 43.417969 13.953125 43.4375 C 13.804688 43.464844 13.648438 43.304688 13.597656 43.097656 C 13.546875 42.878906 13.628906 42.679688 13.773438 42.664063 Z M 13.785156 41.445313 C 13.933594 41.445313 14.0625 41.617188 14.070313 41.832031 C 14.082031 42.042969 13.960938 42.222656 13.816406 42.234375 C 13.675781 42.234375 13.550781 42.058594 13.539063 41.84375 C 13.527344 41.636719 13.636719 41.457031 13.785156 41.445313 Z M 13.972656 40.265625 C 14.121094 40.28125 14.21875 40.464844 14.1875 40.6875 C 14.160156 40.90625 14.011719 41.070313 13.863281 41.054688 C 13.726563 41.039063 13.628906 40.855469 13.65625 40.632813 C 13.6875 40.414063 13.835938 40.253906 13.972656 40.265625 Z M 14.347656 39.214844 C 14.496094 39.246094 14.554688 39.445313 14.484375 39.652344 C 14.414063 39.867188 14.238281 40.007813 14.101563 39.976563 C 13.960938 39.941406 13.902344 39.753906 13.960938 39.535156 C 14.03125 39.332031 14.207031 39.179688 14.347656 39.214844 Z M 14.878906 38.214844 C 15.007813 38.273438 15.035156 38.472656 14.929688 38.671875 C 14.820313 38.871094 14.632813 38.996094 14.496094 38.945313 C 14.355469 38.898438 14.335938 38.691406 14.445313 38.488281 C 14.542969 38.292969 14.742188 38.167969 14.878906 38.214844 Z M 15.558594 37.285156 C 15.6875 37.351563 15.675781 37.5625 15.527344 37.742188 C 15.390625 37.925781 15.171875 38.015625 15.054688 37.953125 C 14.925781 37.882813 14.945313 37.683594 15.085938 37.503906 C 15.222656 37.3125 15.441406 37.222656 15.558594 37.285156 Z M 16.386719 36.339844 C 16.492188 36.425781 16.445313 36.628906 16.265625 36.789063 C 16.097656 36.957031 15.863281 37.019531 15.753906 36.9375 C 15.644531 36.855469 15.695313 36.65625 15.871094 36.492188 C 16.039063 36.328125 16.265625 36.257813 16.386719 36.339844 Z M 17.371094 35.609375 C 17.46875 35.707031 17.378906 35.894531 17.183594 36.035156 C 16.984375 36.175781 16.738281 36.214844 16.652344 36.117188 C 16.554688 36.027344 16.640625 35.839844 16.839844 35.695313 C 17.035156 35.554688 17.28125 35.511719 17.371094 35.609375 Z M 18.453125 34.929688 C 18.53125 35.039063 18.414063 35.214844 18.1875 35.332031 C 17.972656 35.445313 17.722656 35.445313 17.65625 35.34375 C 17.578125 35.238281 17.695313 35.054688 17.910156 34.945313 C 18.136719 34.835938 18.382813 34.828125 18.453125 34.929688 Z M 19.636719 34.328125 C 19.683594 34.441406 19.539063 34.597656 19.300781 34.679688 C 19.054688 34.773438 18.816406 34.746094 18.757813 34.632813 C 18.710938 34.515625 18.855469 34.359375 19.09375 34.265625 C 19.328125 34.183594 19.578125 34.210938 19.636719 34.328125 Z M 23.515625 51.265625 C 23.324219 51.03125 22.914063 50.488281 23.039063 50.296875 C 23.199219 50.046875 23.492188 50.097656 23.730469 50.351563 C 23.820313 50.464844 24.15625 50.847656 24.527344 51.273438 C 24.277344 51.277344 24.074219 51.277344 24 51.277344 C 23.835938 51.277344 23.675781 51.273438 23.515625 51.265625 Z M 23.515625 51.265625 "/>
<path style="fill-rule:evenodd;fill:rgb(78.90625%,54.881287%,10.594177%);fill-opacity:1;stroke-width:5;stroke-linecap:butt;stroke-linejoin:miter;stroke:rgb(78.90625%,54.881287%,10.594177%);stroke-opacity:1;stroke-miterlimit:4;" d="M 249.023438 600.242188 L 260.390625 566.921875 L 297.5 566.960938 L 267.421875 546.453125 L 278.984375 513.132813 L 249.023438 533.796875 L 219.0625 513.132813 L 230.585938 546.453125 L 200.507813 566.960938 L 237.617188 566.921875 Z M 249.023438 600.242188 " transform="matrix(0.1,0,0,-0.1,0,60.7)"/>
</g>
</svg>
